# xmcd
#
# Track frame offsets:
#	150
#	14421
#	31793
#	48328
#	62567
#	75162
#	87113
#	100721
#	112895
#	125863
#	141348
#	152492
#	164153
#	178870
#	195872
#	210409
#	230432
#	244689
#	258822
#	277801
#
# Disc length: 3842
#
# Revision: 1
# Processed by: cddbd v1.5.1PL0 Copyright (c) Steve Scherf et al.
# Submitted via: VisiTrax 2.9.5.181 - For more info visit www.synapsa.com
# Normalized: r0:DSETVAR1
#
DISCID=f80f0014
DTITLE=Various Artist - The Most Awesome Line Dance Album 5
DYEAR=2003
DGENRE=Country
TTITLE0=George Ducas - In No Time At All
TTITLE1=Tanya Tucker - Some Kind Of Trouble
TTITLE2=Keith Urban - It's A Love thing
TTITLE3=Steve Wariner - Tatoos Of Life
TTITLE4=Eddy Raven - Bayou Boys
TTITLE5=Dean Miller - My Hearts Broken Down
TTITLE6=Noah Gordon - The Blue Pages
TTITLE7=Joni Harms - Tear It Up
TTITLE8=Julie Reeves - Party Down
TTITLE9=Susan Ashton - Breathless
TTITLE10=Sam Miller - I've Been Found
TTITLE11=Wild Rose - There Goes My Love
TTITLE12=Trace Adkins - Nothin' But Tail Lights
TTITLE13=Sharon B - Blue Rose Is
TTITLE14=Eddie Rabbitt - Drivin' My Life Away
TTITLE15=Suzie Boggus - Just Enough Rope
TTITLE16=Niki Dean - Heart Of Stone
TTITLE17=Shenedoah - Church On Cumberland Road
TTITLE18=Ronnie Milsap - Stranger In My House
TTITLE19=Gail Davies - I'll Be There
EXTD=
EXTT0=
EXTT1=
EXTT2=
EXTT3=
EXTT4=
EXTT5=
EXTT6=
EXTT7=
EXTT8=
EXTT9=
EXTT10=
EXTT11=
EXTT12=
EXTT13=
EXTT14=
EXTT15=
EXTT16=
EXTT17=
EXTT18=
EXTT19=
PLAYORDER=
